<svg id="Livello_1" data-name="Livello 1" xmlns="http://www.w3.org/2000/svg" xmlns:xlink="http://www.w3.org/1999/xlink" viewBox="0 0 145.41 78.75"><defs><style>.cls-1{fill:none;}.cls-2{clip-path:url(#clip-path);}.cls-3{fill:#231f20;}.cls-4{fill:#9b7c38;}</style><clipPath id="clip-path" transform="translate(-35.29 -54.26)"><rect class="cls-1" width="216" height="216"/></clipPath></defs><title>RomeCavalieri-logo-black-new</title><g class="cls-2"><path class="cls-3" d="M37.79,106.18a.19.19,0,0,0,.1.17,4.1,4.1,0,0,0,1.55.24,2,2,0,0,0,1.1-.28,2.69,2.69,0,0,0,.9-2.27c0-1.84-1-3-2.55-3a4.57,4.57,0,0,0-1,.09.17.17,0,0,0-.12.18v4.82m-1.18-1.29c0-2.3,0-2.71,0-3.18s-.15-.74-.63-.84a2.76,2.76,0,0,0-.51-.05s-.11,0-.11-.08.07-.12.23-.12c.67,0,1.59,0,1.67,0s1.28,0,1.73,0a4.53,4.53,0,0,1,2.7.65,2.55,2.55,0,0,1,1,2,4.55,4.55,0,0,1-1.78,3.4c1.21,1.55,2.21,2.86,3.06,3.78a3.06,3.06,0,0,0,1.8,1.06,3.91,3.91,0,0,0,.57,0c.08,0,.14,0,.14.09s-.09.12-.36.12h-1a3.06,3.06,0,0,1-1.58-.28,7.72,7.72,0,0,1-2-2.17c-.62-.81-1.31-1.79-1.6-2.18a.27.27,0,0,0-.2-.09l-1.81,0c-.07,0-.1,0-.1.12v.36c0,1.41,0,2.57.07,3.19,0,.43.13.76.58.81a6,6,0,0,0,.66.06c.09,0,.12,0,.12.09s-.08.12-.24.12c-.81,0-1.74-.05-1.81-.05s-.94.05-1.39.05c-.16,0-.23,0-.23-.12s0-.09.11-.09a2.22,2.22,0,0,0,.45-.06c.29,0,.37-.38.42-.81.08-.62.08-1.78.08-3.19Z" transform="translate(-35.29 -54.26)"/><path class="cls-3" d="M53,111.4c1.33,0,4.07-.76,4.07-5.05,0-3.54-2.15-5.44-4.48-5.44s-4.3,1.62-4.3,4.85c0,3.44,2.06,5.64,4.71,5.64m-.31-11c3.32,0,5.79,2.09,5.79,5.53a5.77,5.77,0,0,1-5.87,6,5.53,5.53,0,0,1-5.72-5.79,5.71,5.71,0,0,1,5.8-5.76" transform="translate(-35.29 -54.26)"/><path class="cls-3" d="M73.44,109.86c.06.53.16,1.35.8,1.56a3.21,3.21,0,0,0,1,.13c.08,0,.12,0,.12.08s-.13.13-.31.13-1.91-.05-2.46-.09c-.34,0-.41-.07-.41-.15s0-.08.1-.1.09-.27.06-.53l-.71-7.6h0L67.93,111c-.31.65-.36.78-.49.78s-.18-.15-.45-.68c-.39-.72-1.66-3.27-1.73-3.42s-1.78-3.8-1.94-4.2h-.06l-.59,6.84c0,.24,0,.5,0,.75a.48.48,0,0,0,.39.46,2.55,2.55,0,0,0,.56.07c.06,0,.12,0,.12.08s-.09.13-.27.13c-.54,0-1.25-.05-1.37-.05s-.84.05-1.24.05c-.15,0-.25,0-.25-.13s.07-.08.15-.08a2.06,2.06,0,0,0,.44,0c.49-.09.53-.67.59-1.22l1.06-9.61c0-.16.08-.27.16-.27s.15.06.22.22l4.51,9.27,4.34-9.25c0-.13.11-.24.22-.24s.14.12.17.4l1,9" transform="translate(-35.29 -54.26)"/><path class="cls-3" d="M79.08,104.89c0-2.3,0-2.71,0-3.18s-.14-.74-.63-.84a2.73,2.73,0,0,0-.5-.05c-.06,0-.12,0-.12-.08s.07-.12.24-.12c.66,0,1.59,0,1.66,0h3.37a4.51,4.51,0,0,0,.64-.08c.07,0,.13-.07.21-.07s0,.06,0,.13-.07.28-.11.7c0,.14,0,.79-.08,1s0,.16-.1.16-.12-.07-.12-.19a1.43,1.43,0,0,0-.09-.53c-.1-.24-.25-.41-1-.5-.25,0-1.86,0-2,0s-.09,0-.09.15v4.07c0,.1,0,.14.09.14s2,0,2.34,0,.56-.06.69-.21.16-.19.22-.19.08,0,.08.12-.08.34-.12.82c0,.29-.06.84-.06.94s0,.28-.1.28-.11-.05-.11-.13a1.81,1.81,0,0,0,0-.49c-.06-.2-.19-.45-.77-.51-.4,0-1.86-.07-2.11-.07a.09.09,0,0,0-.1.1v1.3c0,.5,0,2.21,0,2.51,0,1,.26,1.22,1.71,1.22a4,4,0,0,0,1.41-.17c.39-.16.56-.46.67-1.06,0-.16,0-.22.13-.22s.09.12.09.22-.12,1.12-.19,1.43-.22.38-.8.38c-2.23,0-3.21-.09-3.64-.09-.07,0-1,.05-1.44.05-.17,0-.24,0-.24-.12s0-.09.12-.09a2.22,2.22,0,0,0,.44-.06c.29,0,.37-.38.43-.81.07-.62.07-1.78.07-3.19v-2.6" transform="translate(-35.29 -54.26)"/><path class="cls-3" d="M93.11,110.37A5.63,5.63,0,0,1,91.33,106,5.88,5.88,0,0,1,93,102a6,6,0,0,1,4.49-1.58,12.86,12.86,0,0,1,2.14.18,13.43,13.43,0,0,0,1.51.22c.16,0,.19.07.19.16s0,.3-.08.83,0,1.29,0,1.52,0,.31-.13.31-.12-.11-.12-.31a2.05,2.05,0,0,0-.62-1.51,4.93,4.93,0,0,0-2.95-.84A4.51,4.51,0,0,0,94,102.05a4.94,4.94,0,0,0-1.32,3.84,5.32,5.32,0,0,0,5.32,5.4,3.41,3.41,0,0,0,2.56-.74,2.84,2.84,0,0,0,.55-1.24c0-.16,0-.22.14-.22s.1.11.1.22a14.71,14.71,0,0,1-.32,1.89c-.09.28-.12.31-.38.43A8.71,8.71,0,0,1,98,112a6.82,6.82,0,0,1-4.87-1.6" transform="translate(-35.29 -54.26)"/><path class="cls-3" d="M110,106.88c.08,0,.08,0,.06-.1l-1.39-4c-.08-.22-.15-.22-.23,0l-1.29,4c0,.07,0,.1,0,.1H110M108.46,101c.18-.49.24-.58.33-.58s.15.08.32.53,2.54,6.65,3.43,8.89c.54,1.31,1,1.55,1.27,1.64a2,2,0,0,0,.59.08c.09,0,.15,0,.15.09s-.13.12-.3.12-1.29,0-2.31,0c-.28,0-.44,0-.44-.1s0-.09.1-.11.18-.16.09-.39l-1.37-3.63a.13.13,0,0,0-.13-.09H107a.17.17,0,0,0-.15.12l-.88,2.61a3.2,3.2,0,0,0-.21,1c0,.29.31.42.56.42h.15q.15,0,.15.09c0,.09-.09.12-.22.12-.36,0-1,0-1.15,0s-1,0-1.67,0c-.19,0-.28,0-.28-.12s.06-.09.13-.09a3.22,3.22,0,0,0,.43,0c.68-.09,1-.65,1.24-1.38Z" transform="translate(-35.29 -54.26)"/><path class="cls-3" d="M119.79,110c.85-2,2.83-7.12,3.15-8.18a2.26,2.26,0,0,0,.14-.56.38.38,0,0,0-.2-.34,2.2,2.2,0,0,0-.56,0c-.09,0-.16,0-.16-.09s.09-.12.32-.12c.6,0,1.27,0,1.45,0s.72,0,1.15,0c.16,0,.25,0,.25.1s-.06.11-.18.11a1.4,1.4,0,0,0-.71.17c-.19.13-.41.38-.81,1.39-.16.41-.9,2.18-1.65,4-.9,2.15-1.56,3.74-1.9,4.46-.41.89-.47,1.12-.62,1.12s-.25-.2-.53-.91l-3.61-9c-.32-.83-.55-1-1.06-1.14a2.68,2.68,0,0,0-.56,0c-.09,0-.12,0-.12-.11s.15-.1.39-.1c.7,0,1.54,0,1.72,0s.81,0,1.37,0c.27,0,.4,0,.4.1s0,.11-.15.11a1.69,1.69,0,0,0-.56.07.29.29,0,0,0-.19.29,5.9,5.9,0,0,0,.4,1.23l2.83,7.54" transform="translate(-35.29 -54.26)"/><path class="cls-3" d="M131.18,106.88c.07,0,.07,0,0-.1l-1.4-4q-.11-.33-.21,0l-1.3,4c0,.07,0,.1,0,.1h2.82M129.65,101c.17-.49.23-.58.32-.58s.14.08.32.53,2.54,6.65,3.44,8.89c.53,1.31,1,1.55,1.26,1.64a2,2,0,0,0,.59.08c.09,0,.15,0,.15.09s-.13.12-.3.12-1.29,0-2.31,0c-.28,0-.44,0-.44-.1s0-.09.1-.11.18-.16.09-.39l-1.37-3.63a.13.13,0,0,0-.13-.09H128.2a.17.17,0,0,0-.15.12l-.88,2.61a3.2,3.2,0,0,0-.21,1c0,.29.31.42.56.42h.15q.15,0,.15.09c0,.09-.09.12-.22.12-.36,0-1,0-1.15,0s-1,0-1.67,0c-.19,0-.28,0-.28-.12s.06-.09.13-.09a3.22,3.22,0,0,0,.43,0c.68-.09,1-.65,1.24-1.38Z" transform="translate(-35.29 -54.26)"/><path class="cls-3" d="M140.18,107.52c0,2.16.06,3.1.32,3.37s.62.34,1.77.34c.78,0,1.43,0,1.78-.44a2.21,2.21,0,0,0,.39-.89c0-.12,0-.19.13-.19s.09.06.09.22a10.59,10.59,0,0,1-.22,1.48c-.11.33-.15.39-.93.39-2.13,0-3.1-.09-3.95-.09-.14,0-1,.05-1.45.05-.16,0-.23,0-.23-.12s0-.09.12-.09a2.32,2.32,0,0,0,.44-.06c.29,0,.37-.38.42-.81.08-.62.08-1.78.08-3.19v-2.6c0-2.3,0-2.71,0-3.18s-.15-.74-.64-.84a2.56,2.56,0,0,0-.49,0c-.07,0-.12,0-.12-.09s.07-.12.23-.12c.66,0,1.59,0,1.67,0s1.15,0,1.59,0c.16,0,.23,0,.23.12s0,.09-.11.09a3.39,3.39,0,0,0-.49,0c-.43.07-.54.32-.58.84s0,.88,0,3.18v2.63" transform="translate(-35.29 -54.26)"/><path class="cls-3" d="M150.05,107.49c0,1.41,0,2.57.07,3.19,0,.43.13.76.57.81a6.58,6.58,0,0,0,.67.06c.08,0,.12,0,.12.09s-.08.12-.24.12c-.81,0-1.74-.05-1.81-.05s-1,.05-1.45.05c-.16,0-.23,0-.23-.12s0-.09.11-.09a2.22,2.22,0,0,0,.45-.06c.29,0,.37-.38.42-.81.08-.62.08-1.78.08-3.19v-2.6c0-2.3,0-2.71,0-3.18s-.18-.75-.5-.83a2.13,2.13,0,0,0-.46,0c-.06,0-.12,0-.12-.09s.08-.12.24-.12c.48,0,1.41,0,1.49,0s1,0,1.44,0c.16,0,.24,0,.24.12s-.06.09-.12.09a2.12,2.12,0,0,0-.37,0c-.4.07-.51.32-.55.84s0,.88,0,3.18v2.6" transform="translate(-35.29 -54.26)"/><path class="cls-3" d="M155.87,104.89c0-2.3,0-2.71,0-3.18s-.15-.74-.64-.84a2.57,2.57,0,0,0-.5-.05c-.06,0-.12,0-.12-.08s.08-.12.24-.12c.66,0,1.59,0,1.66,0h3.38a4.13,4.13,0,0,0,.63-.08c.08,0,.14-.07.21-.07s.06.06.06.13-.08.28-.12.7c0,.14,0,.79-.07,1s0,.16-.11.16-.11-.07-.11-.19a1.67,1.67,0,0,0-.09-.53c-.11-.24-.25-.41-1-.5-.25,0-1.85,0-2,0s-.09,0-.09.15v4.07c0,.1,0,.14.09.14s2,0,2.35,0,.56-.06.69-.21.16-.19.22-.19.07,0,.07.12-.07.34-.12.82c0,.29-.05.84-.05.94s0,.28-.11.28-.1-.05-.1-.13a1.52,1.52,0,0,0-.06-.49c-.06-.2-.19-.45-.77-.51-.39,0-1.85-.07-2.1-.07-.08,0-.11,0-.11.1v1.3c0,.5,0,2.21,0,2.51.05,1,.27,1.22,1.71,1.22a4.07,4.07,0,0,0,1.42-.17c.38-.16.56-.46.66-1.06,0-.16.06-.22.14-.22s.08.12.08.22a12.65,12.65,0,0,1-.19,1.43c-.1.38-.22.38-.79.38-2.23,0-3.22-.09-3.65-.09-.07,0-1,.05-1.44.05-.16,0-.23,0-.23-.12s0-.09.11-.09a2.32,2.32,0,0,0,.45-.06c.29,0,.36-.38.42-.81.08-.62.08-1.78.08-3.19v-2.6" transform="translate(-35.29 -54.26)"/><path class="cls-3" d="M166.64,106.18a.18.18,0,0,0,.09.17,4.18,4.18,0,0,0,1.55.24,2,2,0,0,0,1.11-.28,2.72,2.72,0,0,0,.9-2.27c0-1.84-1-3-2.55-3a4.77,4.77,0,0,0-1,.09.18.18,0,0,0-.11.18v4.82m-1.19-1.29c0-2.3,0-2.71,0-3.18s-.15-.74-.64-.84a2.73,2.73,0,0,0-.5-.05c-.06,0-.12,0-.12-.08s.08-.12.24-.12c.66,0,1.59,0,1.66,0s1.29,0,1.74,0a4.54,4.54,0,0,1,2.7.65,2.55,2.55,0,0,1,1,2,4.52,4.52,0,0,1-1.78,3.4c1.21,1.55,2.21,2.86,3.07,3.78a3,3,0,0,0,1.79,1.06,4,4,0,0,0,.58,0c.07,0,.13,0,.13.09s-.09.12-.35.12h-1.05a3,3,0,0,1-1.57-.28,7.57,7.57,0,0,1-2-2.17c-.62-.81-1.32-1.79-1.61-2.18a.23.23,0,0,0-.19-.09l-1.82,0c-.07,0-.09,0-.09.12v.36c0,1.41,0,2.57.07,3.19,0,.43.13.76.57.81a6.42,6.42,0,0,0,.66.06c.09,0,.12,0,.12.09s-.07.12-.23.12c-.81,0-1.74-.05-1.82-.05s-.94.05-1.38.05c-.16,0-.24,0-.24-.12s0-.09.12-.09a2.12,2.12,0,0,0,.44-.06c.3,0,.37-.38.43-.81.07-.62.07-1.78.07-3.19Z" transform="translate(-35.29 -54.26)"/><path class="cls-3" d="M179.28,107.49c0,1.41,0,2.57.07,3.19.05.43.13.76.57.81a6.58,6.58,0,0,0,.67.06c.09,0,.12,0,.12.09s-.08.12-.24.12c-.81,0-1.74-.05-1.81-.05s-1,.05-1.45.05c-.16,0-.23,0-.23-.12s0-.09.11-.09a2.22,2.22,0,0,0,.45-.06c.29,0,.37-.38.42-.81.08-.62.08-1.78.08-3.19v-2.6c0-2.3,0-2.71,0-3.18s-.18-.75-.5-.83a2.19,2.19,0,0,0-.46,0c-.06,0-.12,0-.12-.09s.08-.12.24-.12c.48,0,1.41,0,1.49,0s1,0,1.44,0c.16,0,.24,0,.24.12s-.06.09-.12.09a2.12,2.12,0,0,0-.37,0c-.4.07-.52.32-.54.84s0,.88,0,3.18v2.6" transform="translate(-35.29 -54.26)"/><path class="cls-4" d="M103.1,84.57s-.12,0-.11,0,0-1.29,0-1.29-.23-.39-.09-.65a.76.76,0,0,0,.06-.55,2.44,2.44,0,0,1,0-1.15,4.47,4.47,0,0,0-.21-1.81,1.66,1.66,0,0,1,0-.8s0,.13.33.17a4.61,4.61,0,0,0,2.43-1.23l.73,0a4.43,4.43,0,0,0,0,.45.36.36,0,0,0,.2.18,2.53,2.53,0,0,1-.06,1c-.13.19-.62.06-.73.06s-.16-.14-.39-.16a.49.49,0,0,0-.48.33c0,.11.15.2.35.27s.08.15.08.34-1.33.28-1.33.28l-.18-.24s-.24-.2,0-.26-.16-.49-.36-.43-.24.49-.15,1.08,0,3.3,0,3.49-.08.24-.08.24,0,.18.23.45c0,.53-.23.41-.23.41l0-.12m1-10.47c-.22,0-.28.09-.43.29a.59.59,0,0,1-.45.21c-.11,0-.32.27-.32.27s-.07,2.19,0,2.72-.28.52-.28.52a26.63,26.63,0,0,0-.2-3.53s-.19-.72,0-.94a.61.61,0,0,0,.08-.56l0-3.41-.1-2.63a6.6,6.6,0,0,0-.12-1.14c-.07-.13.08-.35.3-.38s0-.28,0-.28-.2-.3-.29-.45-.09-.18.21-.39.43.32.43.32l.44,0a.79.79,0,0,0,.47.36.43.43,0,0,0,.5-.15.3.3,0,0,1,.36.2c.08.26.14.21.35.3a11.21,11.21,0,0,1,1.14.94.53.53,0,0,1,.06.54c-.12.34-.54-.3-.54-.3S105.18,66,105,66a.49.49,0,0,0-.27.62c.12.24.09.32,0,.34s-.54-.27-.54-.27a.6.6,0,0,0-.37-.45c-.3-.09-.08-.32-.08-.32l.34-.35s.13-.17-.19-.22a.57.57,0,0,0-.51.23.44.44,0,0,1-.19.36,2.46,2.46,0,0,0-.4.85l0,3.33s0,2.41,0,2.66.06.22.22.29.33-.12.33-.12a.83.83,0,0,1,.56.67c.06.53.29.13.29.13m.57-3.44s.1-.52.11-.56a5.17,5.17,0,0,1,.57-.35s.35-.31.47.11a1.12,1.12,0,0,1-.23.85,2.3,2.3,0,0,0-.35.86c0,.37-.54,1-.8.8s.15-1.37.15-1.37Zm2.61-4.78c-.09-.32.47-.59.56-.69s.16.1.35.48a.71.71,0,0,1,0,.71l.25.62-.07.71s.1.12.06.52-.27.42-.51.48-.52.68-.52.68-.3-.32-.51-.5-.1-.89,0-1.09a8.65,8.65,0,0,0,.42-1.25,2,2,0,0,0,0-.67m.08,10.79s-.61-.13-.6-.45a1.32,1.32,0,0,1,.3-.67,11.19,11.19,0,0,0,.16-2c-.1-.39-.49-.53-.41-.78s.14-.36.4-.19.3.11.27-.14-.11-.62.2-.62.41.57.38.85.43.36.43.36.59.49.61.61a1.36,1.36,0,0,0,.09.24s.76.07.85,0,.6,0,.69.59.91,3.23.91,3.23a8.14,8.14,0,0,1,.28,1.31,8.93,8.93,0,0,1-.08.92,1.46,1.46,0,0,0,0,.72c.14.21,0,.61-.11.5a2.34,2.34,0,0,1-.81-.88,6.39,6.39,0,0,0-.4-.83,11.53,11.53,0,0,0,.11-2,6.86,6.86,0,0,0-.92-.8,4.11,4.11,0,0,1-.85-1,1.3,1.3,0,0,1,.13-.85c0-.08.36-.39.09-.71s-.22-.13-.22-.13-.34.68-.51.35-.2-.28-.11-.47.22-.19.25-.31,0-.38-.17-.19a.66.66,0,0,1-.52.22c-.1,0-.06.46-.06.46s.22.3.09.47-.46.51-.33.65.34.26.46.15.18.29,0,.39a.55.55,0,0,0-.22.22s0,.61-.15.71a.45.45,0,0,1-.3.07m2-4.19a.54.54,0,0,1,.13-.71c.39-.33.28-.49.28-.56s0-.4.23-.4.3.07.38-.1,0-.37.09-.41a.86.86,0,0,1,.58.1c.06.09.22.5.52.51s.31.47.12.47-.4.16-.3.25a1.43,1.43,0,0,1,.17.51l0,.39s.22.5.37.43.08-.23,0-.3,0-.51,0-.51l.39-.06a1.82,1.82,0,0,0,.74.49c.56.25.6.59.6.59l0,.31a.26.26,0,0,0,.24-.06.41.41,0,0,1,.35-.19,2.9,2.9,0,0,1,.41.13s.6.38.78.25.23.76,0,.89,0,.37,0,.37.36.37-.19.43a1.39,1.39,0,0,1-.73,0,.42.42,0,0,0-.57-.08c-.36.21,0-.25-1-.28a6.73,6.73,0,0,0-1.42-1l-.81-.06s-1.58-1-1.42-1.38m6.86-1.72a.87.87,0,0,0,.57-.19c.18-.2.63,0,.63,0s.09.27,0,.38-.25.06-1,.33-.76-.24-.76-.24c0-.19.55-.3.55-.3m-.72-.66s0-1,.18-1.23.51-.25.53-.41-.09-.31,0-.38a.85.85,0,0,1,.34-.15s.36-.18.43,0a1.61,1.61,0,0,1,.09.48s.06.33.34.31.22.32.23.45.09.6-.13.66a6.94,6.94,0,0,0-.9.41s-.56.34-.88.17-.26-.3-.26-.3M95.11,89.23s1.33,1,1.49.91c.39-.31-.35-1.45-.35-1.45s.22-.3-.21-.93a.74.74,0,0,1,0-1s1.09-2.77,1.74-3.19.77-.36.77-.36a6.55,6.55,0,0,0,2.22-.93,3.76,3.76,0,0,1,1.2-.75s.25-.56-.35-.54l-.52.41s0-1,.14-1.15a.94.94,0,0,1,1.15.53,18.28,18.28,0,0,1,.08,3.36s-.55.69-.77.65,0,.79,0,.79.11.26.74.49c0,0,.2,0,.19.73s.28,4.32.28,4.32,0,.31.23.32.14-.33.14-.33l-.2-4.42a1.32,1.32,0,0,1,1.34-.14c.81.33,1.08.12,1.08.12a1.06,1.06,0,0,1,1.09.34c.36.53,1,.23.57,1.07a.42.42,0,0,1-.27.25.66.66,0,0,0,.23.56l.93.65s.41.25.3-.53A5.43,5.43,0,0,0,108,87.9s.3-1.71-.38-1.77-1.32.28-2.09-.07-1.29-.51-1.1-.83a2.12,2.12,0,0,1,1.09-.9c.56-.22,1-1.58,1-1.58a3.09,3.09,0,0,0,.69-1.22c.19-.72.81.13.81.13s.07.13.45-.34.51.17.51.17,1.15-.16,1,.45c0,.14-.6,0-1.21.25l-1,.07s-.31.2.07.23a6.07,6.07,0,0,0,2.14.12c.88-.2.82.33,1.78-.24.47-.28.43.34.43.34a2.63,2.63,0,0,0,.3,1.16s.27.34-.13,1.26a1.92,1.92,0,0,0,.26,1.79v3.29s-.52,1.24,0,1.45c.3.12.55-.91,1.42.93,0,0,.66-.44,0-1.29s-.82-.6-.81-1.31.19-2.71.19-2.71a19.48,19.48,0,0,0,.2-3.19,10.83,10.83,0,0,1,.39-2.86s0,.23,1-.64,1.45-1.24,1.45-1.24a8.27,8.27,0,0,0,1.72-1.28,1.43,1.43,0,0,1,2.22-.17c.55.77,1.34,1.15,1.25,1.87a1.3,1.3,0,0,1-1,1.23c-.46.07-.06.73-.06.73a3.68,3.68,0,0,1,.09,1.37c-.13.47.76-.66.76-.66a2.47,2.47,0,0,1,.37-1.29,1.5,1.5,0,0,0,.12-2.26c-.93-1.22-1.13-1.42-1.26-2s-.19-1.32-1.38-.54a3.45,3.45,0,0,1-1.8.74,1.83,1.83,0,0,0-1.12,1.17c-.13.37-.19-.21-.19-.21a7.37,7.37,0,0,0,.45-2.36c0-1-.64-1-.64-1l.47-.34s.25-.46-.14-.39-.06-.4-.06-.4A4.57,4.57,0,0,0,116,72c-.1-.39.41-.62.41-.62a2.07,2.07,0,0,1,1.2-.35c.57.08.59.3.59.3s.74,0,.8-.23,0-.51.28-.53.32,0,.42.28.17-.37.17-.37,0-.3-.51-.85c-.17-.17,0-1.57,0-1.57a5.88,5.88,0,0,0,.21-1.38,1.21,1.21,0,0,1,.51-1.06s.39-1.1-.49-.5c-.62.42-.75.3-1-.15,0,0-.08-.51-.08-.52s-.22-.62-.65-.1a.79.79,0,0,1-1.19.14c-.24-.2-1.64,0-1.64,0A5.45,5.45,0,0,0,112.93,66c-1.08.92-1,0-1,0,0-.34.15-.42.15-.42l.4.38s.28.1,0-.46a3.41,3.41,0,0,0-2.06-1.64.32.32,0,0,0-.32.28s-.31.29-.4-.09-.11-.3-.11-.3l-.43.41s-.37.24-.45-.45.08-.57.08-.57l.51,0a.86.86,0,0,0,0-1.09c-.42-.68-.54-.22-.6-.89s.47-.62.47-.62.71.14.79-.05-.16-.49-.16-.49-.57-.28-.58-.48-.25-.79-.38-.64-.46.18-.51.08,0-.31.27-.42.25-.68.77-.76.67,0,.57-.28-.25-.67-.7-.65a.67.67,0,0,0-.59.47s-.35.33-1.19-.34c-.36-.18-.55,0-.55,0s-1.18.72-.19,1.06l.71,0s.52.57.25,1a3.06,3.06,0,0,1-.55.69,2.23,2.23,0,0,0-.13,1.88c.44.81.14.71.57.75s1,.13.54.66a9.36,9.36,0,0,1-1.71,1.21s-1.93.54-2.88-.1A3.34,3.34,0,0,1,102,62.22c-.11-.57-.11-2.86-.11-2.86l0-5s-.39-.37-.39.09.18,5.65.17,6-.08,1.9-.08,1.9-.91,0-.83.65a1.27,1.27,0,0,0,.66,1s.19,0,.33,1.32l.22,2.3a2.31,2.31,0,0,1-.63,1.75c-.8,1-.59,1.26-1.54,2.44s-.68,1.31-.68,1.31.14.43.57-.2.67,0,.67,0a1.17,1.17,0,0,1-.07.73c-.18.35.2.86.48,1a8.33,8.33,0,0,0,.89.33s-.83,1.45-1.74,1.53a8.76,8.76,0,0,0-2.3.41,6.62,6.62,0,0,0-2.53,2.36,7.76,7.76,0,0,0-.78,2.09,13.47,13.47,0,0,1-.35,1.84,1.14,1.14,0,0,0,0,.58s.25,0,.53-.65a3.14,3.14,0,0,1,1-.85,4.66,4.66,0,0,0,1.12-1.49,5.11,5.11,0,0,0,.2-1.09,2.36,2.36,0,0,1,.57-1.17c.48-.5,1.1-1,1.4-.94s.3.16.2.67-.49.71-.49,1.43a9.42,9.42,0,0,1-.14,1.47,2.82,2.82,0,0,1-.88.72,3.74,3.74,0,0,0-1.21.9,5.82,5.82,0,0,1-.13,1.48c-.18.58-.72,2.08-.72,2.08l-.51,1a.38.38,0,0,0,.1.55c.33.27.61.43.42.59a.77.77,0,0,0-.37.75" transform="translate(-35.29 -54.26)"/><path class="cls-4" d="M110.07,61.31l0,.36s-.15.45-.22.23a3.63,3.63,0,0,1-.07-.74s.22-.38.33.15" transform="translate(-35.29 -54.26)"/><path class="cls-4" d="M93.62,58.13a2.12,2.12,0,0,0,1.19-.1,3.69,3.69,0,0,1,2.3.28c.3.18.62-.05.42-.31a.56.56,0,0,1,0-.75,1.62,1.62,0,0,1,1-.19c.67,0,.72-.66.81-.92.16-.51,1.05-.84,2.21-.33l0,2.31s-1.67-1.29-2.19-.46-.76.27-.85.24-.32,0-.29.33-.34.89-1.14.61a5.52,5.52,0,0,0-2.11-.56c-.48.09-1.51.11-1.43-.15" transform="translate(-35.29 -54.26)"/><rect class="cls-3" y="64.27" width="145.38" height="0.75"/><path class="cls-3" d="M50.48,132.91h-.7l-.08-.2-.2-.44c0-.09-.07-.18-.12-.27l-.09-.24s0,0,0,0a.08.08,0,0,1,0,0H45.92l-.08.2c-.06.13-.12.28-.19.45l-.11.27a2.44,2.44,0,0,0-.1.24,0,0,0,0,0,0,0l0,0h-.7l.21-.48c.14-.32.32-.73.53-1.23.12-.27.25-.55.38-.86l.4-.94c.21-.48.42-1,.64-1.45s.4-.94.58-1.34a1.34,1.34,0,0,1,.07-.18l.08-.18.2.49c.14.32.32.73.53,1.23.12.27.25.55.38.86l.41.93.63,1.47c.21.48.4.93.58,1.33a1.34,1.34,0,0,0,.07.18,1.3,1.3,0,0,1,.08.17M49,131.14l-.23-.56c-.16-.37-.33-.79-.53-1.26-.1-.24-.2-.5-.31-.75s-.19-.48-.28-.69l0-.09,0-.09-.23.56c-.16.37-.33.79-.53,1.25-.11.26-.21.51-.32.76l-.28.68,0,.1a.36.36,0,0,1,0,.09H49Z" transform="translate(-35.29 -54.26)"/><path class="cls-3" d="M62.26,126.25q-1.8,4.44-2.69,6.66c-.79-1.83-1.37-3.2-1.77-4.11-.78,1.82-1.37,3.2-1.77,4.11l-2.69-6.66H54c.92,2.29,1.6,4,2.06,5.15.76-1.79,1.32-3.14,1.7-4,.77,1.78,1.36,3.12,1.75,4q1.35-3.43,2-5.14Z" transform="translate(-35.29 -54.26)"/><path class="cls-3" d="M68.1,132.91h-.71l-.08-.2-.19-.44L67,132c0-.09-.07-.17-.09-.24l0,0a.08.08,0,0,1,0,0H63.54l-.08.2c-.06.13-.12.28-.19.45l-.11.27a2.56,2.56,0,0,0-.11.24v0l0,0h-.7l.21-.48c.14-.32.32-.73.53-1.23l.37-.86c.14-.31.27-.62.41-.94.21-.48.42-1,.64-1.45s.4-.94.57-1.34l.08-.18a1.42,1.42,0,0,1,.08-.18l.2.49c.14.32.32.73.53,1.23.12.27.25.55.38.86s.26.62.41.93q.3.74.63,1.47c.21.48.4.93.58,1.33a1.34,1.34,0,0,0,.07.18l.08.17m-1.46-1.77-.23-.56c-.16-.37-.33-.79-.53-1.26-.1-.24-.2-.5-.31-.75s-.19-.48-.28-.69a.36.36,0,0,1,0-.09l0-.09-.24.56-.52,1.25c-.11.26-.21.51-.32.76s-.2.48-.29.68l0,.1a.36.36,0,0,1,0,.09h2.86Z" transform="translate(-35.29 -54.26)"/><polygon class="cls-3" points="34.17 78.65 34.17 73.66 34.17 71.99 34.8 71.99 34.8 78.06 37.61 78.06 37.61 78.65 34.17 78.65"/><path class="cls-3" d="M79.2,130.53a3.42,3.42,0,0,1-.37.85,3.13,3.13,0,0,1-1.24,1.12,3.84,3.84,0,0,1-1.79.41H74.32v-6.65h1.51a4.2,4.2,0,0,1,1,.11,3.65,3.65,0,0,1,.89.34,3,3,0,0,1,1.16,1.13,3.35,3.35,0,0,1,.43,1.7,3.54,3.54,0,0,1-.13,1m-1.31-3a2.8,2.8,0,0,0-2-.76H75v5.53h.85a2.69,2.69,0,0,0,2.1-.82,2.81,2.81,0,0,0,.76-2,2.66,2.66,0,0,0-.77-2" transform="translate(-35.29 -54.26)"/><path class="cls-3" d="M87.15,130.55a3.29,3.29,0,0,1-.37.86,3.39,3.39,0,0,1-1.18,1.17A3.23,3.23,0,0,1,84,133a3.4,3.4,0,0,1-1.67-.43,3.18,3.18,0,0,1-1.18-1.18,3.42,3.42,0,0,1-.37-.85,4,4,0,0,1-.13-1,3.36,3.36,0,0,1,.43-1.7,3.14,3.14,0,0,1,1.13-1.21,3.3,3.3,0,0,1,.83-.38,3.24,3.24,0,0,1,.94-.13,3.32,3.32,0,0,1,1,.13,3.22,3.22,0,0,1,.84.38,3.07,3.07,0,0,1,1.13,1.21,3.46,3.46,0,0,1,.42,1.7,3.51,3.51,0,0,1-.13,1m-.63-1.78a3.12,3.12,0,0,0-.29-.7,2.52,2.52,0,0,0-.94-.95,2.61,2.61,0,0,0-1.36-.36,2.81,2.81,0,0,0-.77.11,2.47,2.47,0,0,0-.66.3,2.57,2.57,0,0,0-.9,1,2.92,2.92,0,0,0-.33,1.4,2.83,2.83,0,0,0,.35,1.43,2.57,2.57,0,0,0,.91,1,2.4,2.4,0,0,0,.67.31,2.61,2.61,0,0,0,.75.11,2.65,2.65,0,0,0,.74-.11,2.47,2.47,0,0,0,.66-.3,2.66,2.66,0,0,0,.92-1,3,3,0,0,0,.34-1.45,3.42,3.42,0,0,0-.09-.79" transform="translate(-35.29 -54.26)"/><path class="cls-3" d="M90.24,126.84H89.18v6.07h-.63v-6.66h2.1a2,2,0,0,1,1.43.54,1.78,1.78,0,0,1,.57,1.37,1.73,1.73,0,0,1-.55,1.28,1.76,1.76,0,0,1-1.29.54h-.34l.42.47.93,1.07.57.65.51.59.07.08.07.07h-.81l-.06-.07-.18-.21c-.14-.16-.33-.38-.55-.65l-.73-.84c-.22-.24-.43-.49-.64-.74s-.41-.47-.58-.67l-.08-.09-.07-.08h1.11a1.63,1.63,0,0,0,1.12-.38,1.3,1.3,0,0,0,.44-1,1.48,1.48,0,0,0-.13-.64,1.22,1.22,0,0,0-.31-.39,1.19,1.19,0,0,0-.71-.29l-.38,0Z" transform="translate(-35.29 -54.26)"/><polygon class="cls-3" points="59.87 72.58 59.87 75.17 62.12 75.17 62.12 75.75 59.87 75.75 59.87 78.65 59.24 78.65 59.24 75.32 59.24 71.99 62.81 71.99 62.81 72.58 59.87 72.58"/><path class="cls-3" d="M107.35,132.91h-.71l-.08-.2c0-.13-.12-.28-.19-.44l-.12-.27-.09-.24,0,0a.08.08,0,0,1,0,0h-3.34l-.08.2c-.06.13-.12.28-.19.45l-.11.27a2.56,2.56,0,0,0-.11.24v0l0,0h-.7l.21-.48c.14-.32.32-.73.53-1.23l.38-.86.4-.94c.21-.48.42-1,.64-1.45s.4-.94.57-1.34l.08-.18.08-.18.2.49c.14.32.32.73.53,1.23.12.27.25.55.38.86s.26.62.41.93q.3.74.63,1.47c.21.48.4.93.58,1.33a1.34,1.34,0,0,0,.07.18l.08.17m-1.46-1.77-.23-.56c-.16-.37-.33-.79-.53-1.26-.1-.24-.2-.5-.31-.75s-.19-.48-.28-.69a.36.36,0,0,1,0-.09l0-.09-.24.56c-.15.37-.32.79-.52,1.25-.11.26-.21.51-.32.76s-.2.48-.29.68l0,.1a.36.36,0,0,1,0,.09h2.86Z" transform="translate(-35.29 -54.26)"/><path class="cls-3" d="M111.52,132.54a2.08,2.08,0,0,1-1.35.48,3,3,0,0,1-1-.17,2.52,2.52,0,0,1-.87-.52c.17-.21.3-.36.38-.47a2,2,0,0,0,.67.4,2,2,0,0,0,.77.15,1.43,1.43,0,0,0,.92-.3,1,1,0,0,0,.38-.83,1.08,1.08,0,0,0-.41-.9,6.53,6.53,0,0,0-.92-.58l-.45-.24-.43-.25a2.52,2.52,0,0,1-.61-.61,1.5,1.5,0,0,1-.25-.9,1.55,1.55,0,0,1,.51-1.2,1.84,1.84,0,0,1,1.27-.45,2.81,2.81,0,0,1,.94.15,2.28,2.28,0,0,1,.8.5l-.4.48a1.7,1.7,0,0,0-.6-.4,2,2,0,0,0-.74-.12,1.23,1.23,0,0,0-.77.26.87.87,0,0,0-.34.75,1,1,0,0,0,.41.88,8.21,8.21,0,0,0,1,.61l.42.23.39.25a2.54,2.54,0,0,1,.58.6,1.78,1.78,0,0,1,.22.91,1.6,1.6,0,0,1-.59,1.29" transform="translate(-35.29 -54.26)"/><polygon class="cls-3" points="79.98 72.58 79.98 78.65 79.34 78.65 79.34 72.58 77.8 72.58 77.8 72.14 77.8 71.99 81.54 71.99 81.54 72.58 79.98 72.58"/><path class="cls-3" d="M124,130.55a3.26,3.26,0,0,1-.36.86,3.48,3.48,0,0,1-1.18,1.17,3.24,3.24,0,0,1-1.66.44,3.37,3.37,0,0,1-1.66-.43,3.18,3.18,0,0,1-1.18-1.18,3.09,3.09,0,0,1-.37-.85,3.54,3.54,0,0,1-.13-1,3.46,3.46,0,0,1,.42-1.7,3.3,3.3,0,0,1,1.13-1.21,3.47,3.47,0,0,1,.83-.38,3.28,3.28,0,0,1,.94-.13,3.32,3.32,0,0,1,1,.13,3.44,3.44,0,0,1,.85.38,3.14,3.14,0,0,1,1.13,1.21,3.46,3.46,0,0,1,.42,1.7,3.52,3.52,0,0,1-.14,1m-.63-1.78a3.1,3.1,0,0,0-.28-.7,2.55,2.55,0,0,0-1-.95,2.58,2.58,0,0,0-1.36-.36,2.74,2.74,0,0,0-.76.11,2.69,2.69,0,0,0-.67.3,2.73,2.73,0,0,0-.9,1,3.12,3.12,0,0,0,0,2.83,2.59,2.59,0,0,0,.92,1,2.4,2.4,0,0,0,.67.31,2.55,2.55,0,0,0,.74.11,2.67,2.67,0,0,0,.75-.11,2.47,2.47,0,0,0,.66-.3,2.64,2.64,0,0,0,.91-1,3,3,0,0,0,.35-1.45,3,3,0,0,0-.1-.79" transform="translate(-35.29 -54.26)"/><path class="cls-3" d="M127.1,126.84H126v6.07h-.63v-6.66h2.1a2,2,0,0,1,1.43.54,1.78,1.78,0,0,1,.57,1.37,1.84,1.84,0,0,1-1.83,1.82h-.35l.42.47.94,1.07.57.65.5.59a.27.27,0,0,1,.07.08l.07.07h-.81l-.06-.07c0-.06-.1-.12-.17-.21s-.33-.38-.56-.65l-.73-.84-.64-.74-.57-.67-.08-.09-.08-.08h1.12a1.65,1.65,0,0,0,1.12-.38,1.26,1.26,0,0,0,.43-1,1.49,1.49,0,0,0-.12-.64,1.22,1.22,0,0,0-.31-.39,1.19,1.19,0,0,0-.71-.29l-.39,0Z" transform="translate(-35.29 -54.26)"/><polygon class="cls-3" points="95.98 78.65 95.98 73.66 95.98 71.99 96.61 71.99 96.61 78.65 95.98 78.65"/><path class="cls-3" d="M139.05,132.91h-.7l-.08-.2c-.06-.13-.12-.28-.2-.44s-.07-.18-.11-.27l-.1-.24,0,0s0,0,0,0H134.5l-.08.2c-.06.13-.13.28-.2.45s-.07.18-.11.27a2.44,2.44,0,0,0-.1.24,0,0,0,0,0,0,0l0,0h-.69l.2-.48.54-1.23c.11-.27.24-.55.37-.86l.4-.94.64-1.45c.21-.49.4-.94.58-1.34l.07-.18a1.42,1.42,0,0,0,.08-.18l.2.49q.23.48.54,1.23l.37.86.41.93.63,1.47c.21.48.4.93.58,1.33l.07.18a1.3,1.3,0,0,1,.08.17m-1.46-1.77-.23-.56-.52-1.26-.31-.75c-.11-.25-.2-.48-.29-.69a.36.36,0,0,0,0-.09l0-.09-.23.56c-.16.37-.33.79-.53,1.25-.1.26-.21.51-.32.76s-.19.48-.28.68a1,1,0,0,1,0,.1l0,.09h2.85Z" transform="translate(-35.29 -54.26)"/><polygon class="cls-3" points="101.87 71.97 102.56 71.97 102.56 72.09 102.28 72.09 102.28 72.98 102.14 72.98 102.14 72.09 101.87 72.09 101.87 71.97"/><path class="cls-3" d="M138.93,126.23l-.38.49-.38-.49h-.11v1h.14v-.73a.1.1,0,0,0,0,0l0,0,.32.42h.05l.32-.43a0,0,0,0,0,0,0v.79h.14v-1h-.12" transform="translate(-35.29 -54.26)"/><polygon class="cls-3" points="112.51 78.61 112.51 75.55 108.99 75.55 108.99 78.61 108.37 78.61 108.37 73.67 108.37 72.03 108.99 72.03 108.99 74.96 112.51 74.96 112.51 72.03 113.15 72.03 113.15 78.61 112.51 78.61"/><path class="cls-3" d="M156.47,130.54a3.07,3.07,0,0,1-.36.85,3.33,3.33,0,0,1-1.17,1.16,3.16,3.16,0,0,1-1.64.43,3.26,3.26,0,0,1-1.64-.42,3.18,3.18,0,0,1-1.17-1.16,3.42,3.42,0,0,1-.37-.85,3.93,3.93,0,0,1-.13-1,3.44,3.44,0,0,1,.42-1.69,3.21,3.21,0,0,1,1.12-1.19,3,3,0,0,1,.82-.37,3.22,3.22,0,0,1,.93-.14,3.32,3.32,0,0,1,1,.14,3,3,0,0,1,.83.37,3.21,3.21,0,0,1,1.12,1.19,3.69,3.69,0,0,1,.28,2.66m-.62-1.76a3,3,0,0,0-.29-.69,2.57,2.57,0,0,0-.93-1,2.72,2.72,0,0,0-2.1-.24,2.47,2.47,0,0,0-.66.3,2.56,2.56,0,0,0-.89,1,2.91,2.91,0,0,0-.33,1.39A3,3,0,0,0,151,131a2.72,2.72,0,0,0,.91,1,2.83,2.83,0,0,0,.66.31,2.59,2.59,0,0,0,.74.1,2.64,2.64,0,0,0,.74-.1,2.41,2.41,0,0,0,.65-.3,2.61,2.61,0,0,0,.91-1,3,3,0,0,0,.34-1.44,3.33,3.33,0,0,0-.09-.78" transform="translate(-35.29 -54.26)"/><polygon class="cls-3" points="124.09 72.61 124.09 78.61 123.46 78.61 123.46 72.61 121.94 72.61 121.94 72.18 121.94 72.03 125.63 72.03 125.63 72.61 124.09 72.61"/><polygon class="cls-3" points="127.11 78.61 127.11 73.13 127.11 72.03 130.58 72.03 130.58 72.61 127.72 72.61 127.72 75.15 130.49 75.15 130.49 75.72 127.72 75.72 127.72 78.03 130.64 78.03 130.75 78.03 130.75 78.61 127.11 78.61"/><polygon class="cls-3" points="132.59 78.61 132.59 73.67 132.59 72.03 133.22 72.03 133.22 78.03 135.99 78.03 135.99 78.61 132.59 78.61"/></g></svg>